<svg width="326" height="326" viewBox="0 0 326 326" version="1.1" xmlns="http://www.w3.org/2000/svg" xmlns:xlink="http://www.w3.org/1999/xlink">
<title>Frame</title>
<desc>Created using Figma</desc>
<g id="Canvas" transform="translate(328 399)">
<clipPath id="clip-0" clip-rule="evenodd">
<path d="M -328 -399L -2 -399L -2 -73L -328 -73L -328 -399Z" fill="#FFFFFF"/>
</clipPath>
<g id="Frame" clip-path="url(#clip-0)">
<path d="M -328 -399L -2 -399L -2 -73L -328 -73L -328 -399Z" fill="#FFFFFF"/>
<g id="Ellipse">
<use xlink:href="#path0_fill" transform="translate(-219 -236)" fill="#FFE600"/>
<mask id="mask0_outline_ins">
<use xlink:href="#path0_fill" fill="white" transform="translate(-219 -236)"/>
</mask>
<g mask="url(#mask0_outline_ins)">
<use xlink:href="#path1_stroke_2x" transform="translate(-219 -236)" fill="#4A266E"/>
</g>
</g>
<g id="Vector">
<use xlink:href="#path2_stroke" transform="translate(-326.852 -382.126)" fill="#0057FF"/>
</g>
</g>
</g>
<defs>
<path id="path0_fill" d="M 109 26.5C 109 41.1355 84.5995 53 54.5 53C 24.4005 53 0 41.1355 0 26.5C 0 11.8645 24.4005 0 54.5 0C 84.5995 0 109 11.8645 109 26.5Z"/>
<path id="path1_stroke_2x" d="M 105 26.5C 105 31.4276 100.768 37.0314 91.2882 41.641C 81.8655 46.2542 69.1219 49.023 54.5 49L 54.5 57C 69.9776 56.977 84.484 53.8135 94.7865 48.8356C 105.031 43.8541 113 36.208 113 26.5L 105 26.5ZM 54.5 49C 39.8781 49.023 27.1345 46.2542 17.7118 41.641C 8.23165 37.0314 4 31.4276 4 26.5L -4 26.5C -4 36.208 3.96859 43.8541 14.2135 48.8356C 24.516 53.8135 39.0224 56.977 54.5 57L 54.5 49ZM 4 26.5C 4 21.5724 8.23165 15.9686 17.7118 11.359C 27.1345 6.74577 39.8781 3.97705 54.5 4L 54.5 -4C 39.0224 -3.97705 24.516 -0.813542 14.2135 4.16438C 3.96859 9.14587 -4 16.792 -4 26.5L 4 26.5ZM 54.5 4C 69.1219 3.97705 81.8655 6.74577 91.2882 11.359C 100.768 15.9686 105 21.5724 105 26.5L 113 26.5C 113 16.792 105.031 9.14587 94.7865 4.16438C 84.484 -0.813542 69.9776 -3.97705 54.5 -4L 54.5 4Z"/>
<path id="path2_stroke" d="M 32.8523 270.126L 34.181 268.632L 33.9487 268.425L 33.6646 268.299L 32.8523 270.126ZM 233.852 139.126L 234.222 137.161L 233.852 139.126ZM 31.5236 271.621C 34.3366 274.122 38.0063 274.807 42.011 274.389C 45.893 273.972 50.5058 272.46 55.4056 270.264C 65.1379 265.891 76.8489 258.573 89.285 250.824C 101.721 243.075 114.912 234.877 127.805 228.613C 140.71 222.338 153.065 218.126 163.852 218.126L 163.852 214.126C 152.14 214.126 139.119 218.664 126.056 225.015C 112.98 231.375 99.6083 239.678 87.1696 247.429C 74.7308 255.18 63.2542 262.362 53.7678 266.614C 49.0582 268.731 45.0539 270.061 41.596 270.411C 38.2608 270.758 35.868 270.131 34.181 268.632L 31.5236 271.621ZM 163.852 218.126C 186.053 218.126 198.777 224.045 205.363 233.056C 211.994 242.131 212.851 254.936 209.891 269.734L 213.813 270.519C 216.854 255.317 216.211 241.122 208.592 230.696C 200.927 220.208 186.651 214.126 163.852 214.126L 163.852 218.126ZM 234.222 137.161C 219.754 134.44 210.206 130.372 204.257 125.496C 198.392 120.688 195.944 115.034 195.758 108.77C 195.568 102.397 197.722 95.2636 201.377 87.663C 205.036 80.0474 210.078 72.2055 215.496 64.3908C 220.914 56.5753 226.665 48.8627 231.651 41.6394C 236.64 34.4089 240.933 27.5382 243.304 21.6C 245.661 15.6761 246.408 9.92498 243.217 5.4678C 240.09 1.10185 233.712 -1.23764 223.982 -1.86945L 223.723 2.12214C 233.243 2.74032 237.958 4.99459 239.965 7.7966C 241.906 10.5074 241.825 14.4985 239.588 20.1214C 237.365 25.7301 233.298 32.2109 228.359 39.3672C 223.415 46.5306 217.666 54.2399 212.209 62.1119C 206.751 69.9846 201.544 78.0958 197.773 85.9294C 193.998 93.7781 191.543 101.59 191.759 108.889C 191.98 116.297 194.953 123.041 201.721 128.589C 208.405 134.068 218.7 138.312 233.483 141.092L 234.222 137.161ZM 223.982 -1.86945C 204.005 -3.16663 187.848 5.30216 174.5 18.6661C 161.268 31.9376 150.587 50.2487 141.553 68.8788C 132.52 87.5114 125.014 106.62 117.976 121.768C 114.463 129.332 111.116 135.821 107.734 140.826C 104.343 145.848 101.15 149.011 98.0876 150.278L 99.617 153.974C 103.805 152.242 107.549 148.249 111.049 143.064C 114.557 137.861 118.054 131.092 121.604 123.453C 128.691 108.195 136.184 89.1163 145.152 70.6239C 154.118 52.129 164.437 34.3776 177.33 21.4928C 190.107 8.70052 205.199 0.919319 223.723 2.12214L 223.982 -1.86945ZM 98.0876 150.278C 91.792 152.883 84.7406 150.793 76.9201 145.544C 69.0915 140.3 61.09 132.286 53.1633 124.109C 45.2368 115.933 37.4151 107.614 30.1833 102.027C 26.5373 99.2185 22.8341 96.99 19.4157 95.8766C 15.8539 94.7314 12.2906 94.6711 8.95789 96.3375L 10.7467 99.9152C 12.914 98.8315 15.3507 98.7713 18.1913 99.6846C 21.1753 100.63 24.2767 102.519 27.7401 105.194C 34.7271 110.576 42.3429 118.695 50.2914 126.893C 58.2397 135.092 66.5507 143.39 74.6908 148.865C 82.8391 154.334 91.4127 157.369 99.617 153.974L 98.0876 150.278ZM 8.95789 96.3375C 5.41566 98.1086 3.08767 102.372 1.5027 107.603C -0.0955104 112.897 -1.129 119.895 -1.62814 127.829C -2.61641 143.646 -1.57723 163.867 0.99343 184.005C 3.56665 204.14 7.69951 224.417 12.872 240.354C 15.4679 248.341 18.3829 255.382 21.4785 260.743C 24.5691 266.086 28.0703 270.19 32.04 271.954L 33.6646 268.299C 30.8843 267.063 27.9168 263.885 24.941 258.74C 21.9702 253.613 19.2211 246.958 16.6764 239.118C 11.5676 223.398 7.51297 203.487 4.9612 183.498C 2.40686 163.511 1.38353 143.669 2.36402 128.08C 2.84925 120.311 3.80795 113.77 5.33083 108.763C 6.86696 103.693 8.78897 100.894 10.7467 99.9152L 8.95789 96.3375ZM 209.891 269.734C 207.464 281.87 209.122 290.346 214.545 295.004C 219.904 299.607 228.123 299.752 237.006 297.325C 254.917 292.433 278.077 276.45 295.188 256.353C 312.254 236.307 323.845 211.508 317.367 188.95C 310.849 166.252 286.41 146.974 234.222 137.161L 233.483 141.092C 285.25 150.826 307.654 169.62 313.522 190.054C 319.43 210.626 308.949 234.019 292.142 253.76C 275.379 273.449 252.864 288.847 235.952 293.467C 227.424 295.796 220.945 295.229 217.151 291.97C 213.421 288.766 211.471 282.23 213.813 270.519L 209.891 269.734Z"/>
</defs>
</svg>
