<svg width="440" height="468" viewBox="0 0 440 468" version="1.1" xmlns="http://www.w3.org/2000/svg" xmlns:xlink="http://www.w3.org/1999/xlink">
<title>astronaut-pushing</title>
<desc>Created using Figma</desc>
<g id="Canvas" transform="translate(1779 -5334)">
<clipPath id="clip-0" clip-rule="evenodd">
<path d="M -1779 5334L -1339 5334L -1339 5802L -1779 5802L -1779 5334Z" fill="#FFFFFF"/>
</clipPath>
<g id="astronaut-pushing" clip-path="url(#clip-0)">
<g id="astronaut pushing on left corner">
<g id="Vector 13">
<use xlink:href="#path0_fill" transform="translate(-1781.95 5473.39)" fill="#AAAAAA"/>
</g>
<g id="Vector 10">
<use xlink:href="#path1_fill" transform="translate(-1721.21 5484.04)" fill="#C4C4C4"/>
<use xlink:href="#path2_fill" transform="translate(-1721.21 5484.04)" fill="#C4C4C4"/>
<use xlink:href="#path3_fill" transform="translate(-1721.21 5484.04)" fill="#C4C4C4"/>
<use xlink:href="#path4_fill" transform="translate(-1721.21 5484.04)" fill="#C4C4C4"/>
</g>
<g id="Vector 9">
<use xlink:href="#path5_fill" transform="translate(-1682.36 5396.59)" fill="#D5D5D5"/>
</g>
<g id="Ellipse">
<use xlink:href="#path6_fill" transform="translate(-1718.5 5401.11)"/>
<use xlink:href="#path6_fill" transform="translate(-1718.5 5401.11)" fill="url(#paint7_linear)"/>
</g>
<g id="Ellipse">
<use xlink:href="#path6_fill" transform="translate(-1718.5 5401.11)"/>
<use xlink:href="#path6_fill" transform="translate(-1718.5 5401.11)" fill="url(#paint9_linear)"/>
</g>
<g id="Vector 15">
<use xlink:href="#path7_fill" transform="translate(-1935 4332)" fill="url(#paint10_radial)"/>
</g>
<g id="Ellipse" style="mix-blend-mode:multiply">
<use xlink:href="#path8_fill" transform="matrix(6.10676e-17 1 -1 6.13976e-17 -1651.88 5404.58)"/>
<use xlink:href="#path8_fill" transform="matrix(6.10676e-17 1 -1 6.13976e-17 -1651.88 5404.58)" fill="url(#paint12_diamond)"/>
</g>
<g id="Vector 11">
<use xlink:href="#path9_fill" transform="translate(-1778.99 5495.27)" fill="#D5D5D5"/>
<use xlink:href="#path10_fill" transform="translate(-1778.99 5495.27)" fill="#D5D5D5"/>
<use xlink:href="#path11_fill" transform="translate(-1778.99 5495.27)" fill="#D5D5D5"/>
<use xlink:href="#path12_fill" transform="translate(-1778.99 5495.27)" fill="#D5D5D5"/>
<use xlink:href="#path13_fill" transform="translate(-1778.99 5495.27)" fill="#D5D5D5"/>
<use xlink:href="#path14_fill" transform="translate(-1778.99 5495.27)" fill="#D5D5D5"/>
<use xlink:href="#path15_fill" transform="translate(-1778.99 5495.27)" fill="#D5D5D5"/>
</g>
<g id="Ellipse" style="mix-blend-mode:screen">
<use xlink:href="#path16_fill" transform="matrix(6.10676e-17 1 -1 6.13976e-17 -1661.09 5410.27)" fill="#6459F1"/>
<use xlink:href="#path16_fill" transform="matrix(6.10676e-17 1 -1 6.13976e-17 -1661.09 5410.27)" fill="url(#paint21_linear)"/>
</g>
<g id="Vector 12">
<use xlink:href="#path17_fill" transform="translate(-1837.71 5394.85)" fill="#F5F5F5"/>
<use xlink:href="#path18_fill" transform="translate(-1837.71 5394.85)" fill="#F5F5F5"/>
<use xlink:href="#path19_fill" transform="translate(-1837.71 5394.85)" fill="#F5F5F5"/>
<use xlink:href="#path20_fill" transform="translate(-1837.71 5394.85)" fill="#F5F5F5"/>
<use xlink:href="#path21_fill" transform="translate(-1837.71 5394.85)" fill="#F5F5F5"/>
<use xlink:href="#path22_fill" transform="translate(-1837.71 5394.85)" fill="#F5F5F5"/>
<use xlink:href="#path23_fill" transform="translate(-1837.71 5394.85)" fill="#F5F5F5"/>
<use xlink:href="#path24_fill" transform="translate(-1837.71 5394.85)" fill="#F5F5F5"/>
</g>
<g id="spark" style="mix-blend-mode:lighten">
<use xlink:href="#path25_fill" transform="matrix(0.921881 0.387473 -0.385701 0.922624 -1707.51 5423.68)" fill="url(#paint30_diamond)"/>
</g>
<g id="spark" style="mix-blend-mode:lighten">
<use xlink:href="#path26_fill" transform="matrix(0.921881 0.387473 -0.385701 0.922624 -1724.2 5420.55)" fill="url(#paint31_diamond)"/>
</g>
<g id="spark" style="mix-blend-mode:lighten">
<use xlink:href="#path27_fill" transform="matrix(0.896565 0.442913 -0.440996 0.897509 -1655.85 5352.51)" fill="url(#paint32_radial)"/>
</g>
</g>
</g>
</g>
<defs>
<linearGradient id="paint7_linear" x1="0" y1="0" x2="1" y2="0" gradientUnits="userSpaceOnUse" gradientTransform="matrix(-165.635 -3.79134 3.78114 -166.082 136.856 148.126)">
<stop offset="0" stop-color="#A3A2A7"/>
<stop offset="1" stop-color="#FFFFFF" stop-opacity="0"/>
</linearGradient>
<linearGradient id="paint9_linear" x1="0" y1="0" x2="1" y2="0" gradientUnits="userSpaceOnUse" gradientTransform="matrix(-165.635 -3.79134 3.78114 -166.082 136.856 148.126)">
<stop offset="0" stop-color="#A3A2A7"/>
<stop offset="1" stop-color="#FFFFFF" stop-opacity="0"/>
</linearGradient>
<radialGradient id="paint10_radial" cx="0.5" cy="0.5" r="0.5" gradientUnits="userSpaceOnUse" gradientTransform="matrix(99.8784 2551.45 -230.838 9.02824 124.944 -137.48)">
<stop offset="0" stop-color="#FFE100"/>
<stop offset="1" stop-color="#C4C4C4" stop-opacity="0"/>
</radialGradient>
<radialGradient id="paint12_diamond" cx="0.5" cy="0.5" r="0.5" gradientUnits="userSpaceOnUse" gradientTransform="matrix(-123.306 4.20128 -19.9159 -581.381 119.318 343.652)">
<stop offset="0.153023" stop-color="#F7F900"/>
<stop offset="0.55288" stop-color="#FFFFFF" stop-opacity="0"/>
</radialGradient>
<linearGradient id="paint21_linear" x1="0" y1="0" x2="1" y2="0" gradientUnits="userSpaceOnUse" gradientTransform="matrix(-3.37008 -102.091 102.366 -3.36101 -0.464763 50.8891)">
<stop offset="0" stop-color="#FFC100"/>
<stop offset="1" stop-color="#FFFFFF" stop-opacity="0"/>
</linearGradient>
<radialGradient id="paint30_diamond" cx="0.5" cy="0.5" r="0.5" gradientUnits="userSpaceOnUse" gradientTransform="matrix(4.67252 12.5251 -49.9958 18.7217 66.1488 11.1156)">
<stop offset="0" stop-color="#F2C94C"/>
<stop offset="1" stop-color="#C4C4C4" stop-opacity="0"/>
</radialGradient>
<radialGradient id="paint31_diamond" cx="0.5" cy="0.5" r="0.5" gradientUnits="userSpaceOnUse" gradientTransform="matrix(7.12686 17.8308 -76.257 26.6524 100.895 15.8243)">
<stop offset="0" stop-color="#F2C94C"/>
<stop offset="1" stop-color="#C4C4C4" stop-opacity="0"/>
</radialGradient>
<radialGradient id="paint32_radial" cx="0.5" cy="0.5" r="0.5" gradientUnits="userSpaceOnUse" gradientTransform="matrix(-3.51573 -3.40571 17.5413 -11.9207 7.21732 79.382)">
<stop offset="0" stop-color="#F3C735"/>
<stop offset="0.15" stop-color="#A0EC62" stop-opacity="0.62"/>
<stop offset="1" stop-color="#C4C4C4" stop-opacity="0"/>
</radialGradient>
<path id="path0_fill" d="M 187.741 67.4021C 190.009 86.1509 136.476 78.5672 125.361 80.2525C 120.64 80.9683 113.439 76.4842 106.988 70.6656C 91.4876 75.8274 42.9186 72.5629 28.5827 72.8999C 10.6629 73.3213 12.8598 65.7406 1.06447 51.4156C 0.759917 51.0458 0.544955 50.695 0.415108 50.3625C -0.0962642 49.0528 -0.22481 48.7808 0.548125 48.8514L 2.32485 28.6676L 2.32485 2.12805C 9.04687 -10.2989 19.55 35.1515 10.0972 49.2852C 11.4889 49.1885 14.6272 57.6262 17.0293 56.0493C 14.7186 51.4156 8.62674 47.0019 17.0293 44.4695C 25.4318 41.9371 70.0374 35.6276 97.6877 44.4695C 102.343 41.028 110.054 37.4368 122.186 34.3282C 185.472 16.422 185.472 48.6532 187.741 67.4021Z"/>
<path id="path1_fill" d="M 147.654 26.5954C 138.579 9.23948 108.407 2.33782 99.5493 0.687903C 90.6916 -0.962015 82.9543 0.687903 67.6197 2.16231C 52.2851 3.63672 110.473 140.125 112.993 154.027C 113.184 155.078 113.635 155.99 114.309 156.776C 121.834 165.552 154.468 157.785 163.752 154.744C 164.244 154.283 164.884 154.027 165.719 154.027C 166.139 146.865 158.997 48.2903 147.654 26.5954Z"/>
<path id="path2_fill" d="M 49.7219 280.615C 48.5039 288.198 33.7995 298.097 15.3139 292.621C -3.17162 287.145 -3.17162 316.422 6.07116 317.897C 13.4654 319.076 70.6306 319.511 97.4486 317.897C 93.3571 309.558 81.1288 287.885 71.6704 281.378C 65.4554 282.051 56.3718 280.899 49.7219 280.615Z"/>
<path id="path3_fill" d="M 296.981 250.882C 307.067 246.681 326.398 243.839 323.037 266.082C 318.836 293.885 308.542 300.414 300.14 302.731C 291.737 305.048 291.317 317.897 300.14 317.897C 307.198 317.897 327.258 318.248 336.08 317.897C 341.822 315.79 352.95 309.471 354.126 305.259C 355.597 299.993 369.881 250.916 355.807 243.334C 344.547 237.267 314.831 232.24 301.381 230.485C 300.211 237.519 298.565 245.272 296.981 250.882Z"/>
<path id="path4_fill" d="M 114.309 156.776C 87.4728 160.493 33.4634 172.899 32.119 192.782C 30.4385 217.637 35.9001 281.247 45.1429 280.615C 46.4454 280.526 48.0023 280.542 49.7219 280.615C 56.3718 280.899 65.4554 282.051 71.6704 281.378C 75.2534 280.989 77.883 279.994 78.543 277.877C 80.6436 271.137 69.3002 210.475 65.9392 204.788C 63.4865 200.638 124.809 186.745 155.636 179.091C 156.092 178.978 156.515 178.834 156.907 178.662C 150.973 211.978 180.987 216.6 187.776 225.851C 195.968 237.015 288.606 251.759 291.967 254.076C 292.897 254.716 295.533 256.012 296.981 250.882C 298.565 245.272 300.211 237.519 301.381 230.485C 303.008 220.693 302.47 207.66 300.79 208.369C 296.799 210.054 180.634 217.426 183.995 197.416L 184.02 197.267C 187.375 177.29 191.283 154.027 165.719 154.027C 165.3 154.212 164.63 154.457 163.752 154.744C 154.468 157.785 121.834 165.552 114.309 156.776Z"/>
<path id="path5_fill" d="M 0 104.35C 1.72843 89.3721 48.5368 64.2318 5.67159 8.5132C 3.78099 -14.0241 83.8393 11.8437 83.8148 43.4779C 83.7904 75.1122 30.4592 128.151 0 104.35Z"/>
<path id="path6_fill" d="M 68.0605 51.1831C 68.0605 79.4507 79.2369 102.366 51.0453 102.366C 22.8538 102.366 0 79.4507 0 51.1831C 0 22.9154 22.8538 0 51.0453 0C 79.2369 0 68.0605 22.9154 68.0605 51.1831Z"/>
<path id="path7_fill" d="M 174.413 2179.32C 248.027 2027.73 217.212 1094.87 174.413 266.952C 132.373 -546.288 15.1764 699.416 1.29984 1329.57C -13.4584 2940.24 100.8 2330.91 174.413 2179.32Z"/>
<path id="path8_fill" d="M 95.4154 15.5697C 95.4154 41.847 74.0559 63.149 47.7077 63.149C 21.3595 63.149 0 41.847 0 15.5697C 0 -10.7077 23.5276 4.22626 49.8758 4.22626C 76.224 4.22626 95.4154 -10.7077 95.4154 15.5697Z"/>
<path id="path9_fill" d="M 340.513 254.214C 319.927 268.537 233.381 233.993 250.396 212.509C 267.411 191.025 345.344 214.826 366.351 207.665C 387.357 200.503 361.099 239.891 340.513 254.214Z"/>
<path id="path10_fill" d="M 203.131 176.281C 203.131 209.982 235.061 234.415 234.01 219.039C 232.96 203.663 250.185 174.385 237.581 167.224C 224.978 160.062 204.602 162.801 203.131 176.281Z"/>
<path id="path11_fill" d="M 170.036 53.054C 178.13 29.0675 167.543 -14.1965 140.417 4.60913C 113.292 23.4147 105.757 17.7735 97.7746 40.7322C 96.6504 43.2355 92.2505 51.0978 93.7834 53.054C 95.8267 55.6615 99.0062 67.2328 104.497 69.3342C 115.21 76.7062 166.675 63.0153 170.036 53.054Z"/>
<path id="path12_fill" d="M 104.497 69.3342C 99.0062 67.2328 95.8267 55.6615 93.7834 53.054C 92.2505 51.0978 96.6504 43.2355 97.7746 40.7322C 82.7805 34.7184 45.7518 50.4928 30.4592 43.5841C 15.3821 36.7728 14.0262 42.0162 16.7029 55.8006C 17.4199 59.4931 18.4263 63.7983 19.5359 68.649C 23.7371 87.0159 77.0484 80.0555 104.497 69.3342Z"/>
<path id="path13_fill" d="M 0 55.8006C 5.54567 58.6651 15.3346 65.5597 19.5359 68.649C 18.4263 63.7983 17.4199 59.4931 16.7029 55.8006C 11.9755 52.3603 3.61309 42.8258 7.9824 32.2101C 13.444 18.9404 0 6.09194 0 11.3577L 0 55.8006Z"/>
<path id="path14_fill" d="M 117.635 185.127C 133.39 167.434 219.936 171.226 179.184 149.32C 149.133 133.167 94.5224 142.14 85.6681 174.49C 81.7188 188.92 95.5787 194.395 117.635 185.127Z"/>
<path id="path15_fill" d="M 85.6681 201.767C 89.4869 230.834 76.5054 260.743 94.9698 260.743C 109.741 260.743 132.48 262.148 142.003 262.85C 128.979 244.314 102.511 216.932 108.813 209.35C 115.115 201.767 81.009 172.279 85.6681 201.767Z"/>
<path id="path16_fill" d="M 89.7284 14.7583C 89.7284 39.4694 69.642 59.5017 44.8642 59.5017C 20.0864 59.5017 0 39.4694 0 14.7583C 0 -9.95284 20.0864 3.83499 44.8642 3.83499C 69.642 3.83499 89.7284 -9.95284 89.7284 14.7583Z"/>
<path id="path17_fill" d="M 66.921 112.692C 62.0895 100.686 61.6695 111.256 62.9299 136.32C 62.9299 139.199 59.7368 150.479 62.9298 150.816C 66.921 151.238 71.7524 124.698 66.921 112.692Z"/>
<path id="path18_fill" d="M 197.362 172.444C 236.014 182.132 240.635 128.211 243.996 119.786C 245.645 115.655 219.856 100.177 222.279 93.4041C 213.337 99.0153 204.31 100.554 200.933 98.7226C 193.052 94.4508 192.531 67.7613 192.531 56.4405C 192.531 45.1196 200.933 6.72778 191.082 4.26672C 199.065 -8.03858 240.549 6.23479 243.996 47.5806C 245.749 68.6012 236.626 82.5711 226.196 90.6647C 234.553 88.6109 253.239 93.7975 263.742 98.7226C 276.346 104.632 291.331 201.066 291.051 238.16C 272.005 240.126 231.645 242.878 222.57 238.16C 213.495 233.442 201.984 192.383 197.362 172.444Z"/>
<path id="path19_fill" d="M 80.7774 180.719C 71.1145 177.981 93.3812 150.599 82.878 143.017C 72.3749 135.434 151.569 132.696 147.367 137.54C 143.166 142.385 159.761 165.343 161.862 173.769C 163.962 182.194 90.4403 183.458 80.7774 180.719Z"/>
<path id="path20_fill" d="M 173.625 175.243C 169.704 164.501 160.895 141.921 157.03 137.54C 145.267 120.69 205.765 102.576 216.058 101.523C 226.351 100.469 226.981 154.18 225.721 160.288C 224.713 165.175 190.57 172.294 173.625 175.243Z"/>
<path id="path21_fill" d="M 407.216 359.333C 403.855 368.812 330.122 347.538 320.249 340.798C 310.376 334.058 320.67 322.262 336.004 319.524C 351.339 316.786 384.739 318.892 393.772 329.424C 402.804 339.955 410.577 349.855 407.216 359.333Z"/>
<path id="path22_fill" d="M 279.077 312.574C 282.436 329.415 258.911 290.036 263.742 277.609C 268.574 265.182 291.051 274.239 291.051 280.558C 291.051 286.877 274.876 291.511 279.077 312.574Z"/>
<path id="path23_fill" d="M 173.625 348.381C 185.389 362.282 157.03 352.172 141.696 350.487C 119.777 348.078 137.12 325.594 143.796 307.94C 150.472 290.285 152.969 302.182 159.341 310.046C 160.181 318.19 164.214 337.259 173.625 348.381Z"/>
<path id="path24_fill" d="M 138.755 272.554C 149.258 271.711 143.796 277.609 157.03 285.613C 172.365 288.14 161.862 277.609 184.549 264.971C 207.235 252.333 213.957 246.857 192.531 238.16C 171.105 229.463 128.252 273.396 138.755 272.554Z"/>
<path id="path25_fill" d="M 46.6641 51.5295C 22.2869 60.3724 4.63447 37.6335 0.0112134 13.2103C -0.919465 8.99938 56.3309 -7.00207 79.0269 3.5252C 101.723 14.0525 71.0412 42.6866 46.6641 51.5295Z"/>
<path id="path26_fill" d="M 71.1753 73.3581C 33.9935 85.947 7.06882 53.5756 0.0171035 18.8063C -1.40243 12.8116 85.9198 -9.96824 120.537 5.01851C 155.155 20.0053 108.357 60.7692 71.1753 73.3581Z"/>
<path id="path27_fill" d="M 23.6343 124.529C -11.669 66.7638 12.2019 54.0602 0.0835496 3.39551C -2.35592 -5.33978 48.9727 3.10854 108.463 24.9468C 167.953 46.785 54.7131 175.382 23.6343 124.529Z"/>
</defs>
</svg>
