<?xml version="1.0" encoding="utf-8"?>
<!-- Generator: Adobe Illustrator 21.1.0, SVG Export Plug-In . SVG Version: 6.00 Build 0)  -->
<svg version="1.1" id="Logo_FIXED" xmlns="http://www.w3.org/2000/svg" xmlns:xlink="http://www.w3.org/1999/xlink" x="0px" y="0px"
	 viewBox="0 0 400 400" style="enable-background:new 0 0 400 400;" xml:space="preserve">
<style type="text/css">
	.st0{fill:none;}
	.st1{fill:#1DA1F2;}
</style>
<title>Twitter_Logo_Blue</title>
<rect class="st0" width="400" height="400"/>
<path class="st1" d="M126.5,361c149.6,0,231.4-123.9,231.4-231.4c0-3.5,0-7-0.2-10.5c15.9-11.5,29.7-25.8,40.6-42.1
	c-14.8,6.6-30.6,10.9-46.7,12.8c17-10.2,29.7-26.1,35.7-45c-16,9.5-33.4,16.1-51.6,19.7c-30.8-32.7-82.3-34.3-115.1-3.5
	c-21.1,19.9-30.1,49.5-23.5,77.7c-65.4-3.3-126.3-34.2-167.6-85C7.8,91,18.9,138.5,54.6,162.4c-12.9-0.4-25.6-3.9-36.9-10.2
	c0,0.3,0,0.7,0,1c0,38.7,27.3,72,65.2,79.7c-12,3.3-24.5,3.7-36.7,1.4c10.7,33.1,41.2,55.8,76,56.5c-28.8,22.6-64.4,34.9-101,34.9
	c-6.5,0-12.9-0.4-19.4-1.2C39,348.4,82.3,361,126.5,361"/>
</svg>
