<svg width="256" height="257" viewBox="0 0 256 257" version="1.1" xmlns="http://www.w3.org/2000/svg" xmlns:xlink="http://www.w3.org/1999/xlink">
<title>Swyzzle S more spread</title>
<desc>Created using Figma</desc>
<g id="Canvas" transform="matrix(0.163057 0 0 0.163057 836.321 54.7873)">
<clipPath id="clip-0" clip-rule="evenodd">
<path d="M -5129 -335.689L -3559 -335.689L -3559 1234.31L -5129 1234.31L -5129 -335.689Z" fill="#FFFFFF"/>
</clipPath>
<g id="Swyzzle S more spread" clip-path="url(#clip-0)">
<path d="M -5129 -335.689L -3559 -335.689L -3559 1234.31L -5129 1234.31L -5129 -335.689Z" fill="#FFFFFF"/>
<g id="Swyzzle S">
<g id="Vector 3" style="mix-blend-mode:exclusion">
<use xlink:href="#path0_fill" transform="translate(-4869.22 -228.767)" fill="#FF0000"/>
<use xlink:href="#path1_fill" transform="translate(-4869.22 -228.767)" fill="#FF0000"/>
</g>
<g id="Vector 3" style="mix-blend-mode:exclusion">
<use xlink:href="#path2_fill" transform="translate(-4824 -297)" fill="#00FF00"/>
<use xlink:href="#path3_fill" transform="translate(-4824 -297)" fill="#00FF00"/>
</g>
<g id="Vector 3" style="mix-blend-mode:exclusion">
<use xlink:href="#path2_fill" transform="translate(-4733.37 -244.912)" fill="#0000FF"/>
<use xlink:href="#path3_fill" transform="translate(-4733.37 -244.912)" fill="#0000FF"/>
</g>
</g>
</g>
</g>
<defs>
<path id="path0_fill" d="M 1013.84 167.412C 1078.86 -83.5879 -96.1593 -99.0882 6.34103 448.412C 108.841 995.912 925.841 908.912 903.341 1037.91C 880.841 1166.91 534.342 1379.91 386.342 1246.91C 238.342 1113.91 97.3421 1167.41 177.342 1246.91C 257.342 1326.41 302.842 1462.91 667.842 1345.41C 1032.84 1227.91 1062.84 1006.91 952.842 896.912C 842.842 786.912 268.841 896.912 207.842 497.912C 146.842 98.9125 922.086 -41.4155 812.342 300.412C 720.842 585.412 952.842 402.912 1013.84 167.412Z"/>
<path id="path1_fill" d="M 1013.84 167.412C 1078.86 -83.5879 -96.1593 -99.0882 6.34103 448.412C 108.841 995.912 925.841 908.912 903.341 1037.91C 880.841 1166.91 534.342 1379.91 386.342 1246.91C 238.342 1113.91 97.3421 1167.41 177.342 1246.91C 257.342 1326.41 302.842 1462.91 667.842 1345.41C 1032.84 1227.91 1062.84 1006.91 952.842 896.912C 842.842 786.912 268.841 896.912 207.842 497.912C 146.842 98.9125 922.086 -41.4155 812.342 300.412C 720.842 585.412 952.842 402.912 1013.84 167.412Z"/>
<path id="path2_fill" d="M 1013.84 167.412C 1078.86 -83.5879 -96.1593 -99.0882 6.34103 448.412C 108.841 995.912 925.841 908.912 903.341 1037.91C 880.841 1166.91 534.342 1379.91 386.342 1246.91C 238.342 1113.91 97.3421 1167.41 177.342 1246.91C 257.342 1326.41 302.842 1462.91 667.842 1345.41C 1032.84 1227.91 1062.84 1006.91 952.842 896.912C 842.842 786.912 268.841 896.912 207.842 497.912C 146.842 98.9125 922.086 -41.4155 812.342 300.412C 720.842 585.412 952.842 402.912 1013.84 167.412Z"/>
<path id="path3_fill" d="M 1013.84 167.412C 1078.86 -83.5879 -96.1593 -99.0882 6.34103 448.412C 108.841 995.912 925.841 908.912 903.341 1037.91C 880.841 1166.91 534.342 1379.91 386.342 1246.91C 238.342 1113.91 97.3421 1167.41 177.342 1246.91C 257.342 1326.41 302.842 1462.91 667.842 1345.41C 1032.84 1227.91 1062.84 1006.91 952.842 896.912C 842.842 786.912 268.841 896.912 207.842 497.912C 146.842 98.9125 922.086 -41.4155 812.342 300.412C 720.842 585.412 952.842 402.912 1013.84 167.412Z"/>
</defs>
</svg>
